<svg width="180" height="180" viewBox="0 0 180 180" fill="none" xmlns="http://www.w3.org/2000/svg">
<path d="M132.346 106.373C132.485 105.123 133.006 104.081 133.908 103.248C134.881 102.345 136.026 101.894 137.346 101.894C138.318 101.894 139.221 102.172 140.054 102.727C140.888 103.213 141.478 103.908 141.825 104.81C142.242 105.644 142.415 106.547 142.346 107.519L141.2 118.456C140.922 121.651 139.915 124.498 138.179 126.998C136.443 129.498 134.221 131.442 131.513 132.831C128.804 134.29 125.818 135.019 122.554 135.019C119.082 135.019 115.992 134.22 113.283 132.623C110.575 131.026 108.457 128.769 106.929 125.852C105.401 122.866 104.638 119.394 104.638 115.435V76.998C104.638 76.8591 105.158 77.3452 106.2 78.4563C107.311 79.498 107.797 80.0188 107.658 80.0188H86.825C85.3667 80.0188 84.1861 79.5327 83.2833 78.5605C82.3111 77.5882 81.825 76.4077 81.825 75.0188C81.825 73.6299 82.3111 72.4494 83.2833 71.4771C84.1861 70.5049 85.3667 70.0188 86.825 70.0188H107.658C107.797 70.0188 107.311 70.5744 106.2 71.6855C105.158 72.7271 104.638 73.1785 104.638 73.0396V50.0188C104.638 48.6299 105.124 47.4494 106.096 46.4771C107.068 45.5049 108.249 45.0188 109.638 45.0188C111.026 45.0188 112.207 45.5049 113.179 46.4771C114.151 47.4494 114.638 48.6299 114.638 50.0188V73.0396C114.638 73.1785 114.082 72.7271 112.971 71.6855C111.929 70.5744 111.478 70.0188 111.617 70.0188H138.596C139.985 70.0188 141.165 70.5049 142.138 71.4771C143.11 72.4494 143.596 73.6299 143.596 75.0188C143.596 76.4077 143.11 77.5882 142.138 78.5605C141.165 79.5327 139.985 80.0188 138.596 80.0188H111.617C111.478 80.0188 111.929 79.498 112.971 78.4563C114.082 77.3452 114.638 76.8591 114.638 76.998V115.435C114.638 118.422 115.367 120.783 116.825 122.519C118.283 124.185 120.228 125.019 122.658 125.019C124.95 125.019 126.894 124.29 128.492 122.831C130.089 121.373 130.992 119.463 131.2 117.102L132.346 106.373Z" fill="black"/>
<path d="M81.8006 106.373C81.9394 105.123 82.4603 104.081 83.3631 103.248C84.3353 102.345 85.4811 101.894 86.8006 101.894C87.7728 101.894 88.6756 102.172 89.5089 102.727C90.3422 103.213 90.9325 103.908 91.2797 104.81C91.6964 105.644 91.87 106.547 91.8006 107.519L90.6547 118.456C90.3769 121.651 89.37 124.498 87.6339 126.998C85.8978 129.498 83.6756 131.442 80.9672 132.831C78.2589 134.29 75.2728 135.019 72.0089 135.019C68.5367 135.019 65.4464 134.22 62.7381 132.623C60.0297 131.026 57.9117 128.769 56.3839 125.852C54.8561 122.866 54.0922 119.394 54.0922 115.435V76.998C54.0922 76.8591 54.6131 77.3452 55.6547 78.4563C56.7658 79.498 57.2519 80.0188 57.1131 80.0188H36.2797C34.8214 80.0188 33.6408 79.5327 32.7381 78.5605C31.7658 77.5882 31.2797 76.4077 31.2797 75.0188C31.2797 73.6299 31.7658 72.4494 32.7381 71.4771C33.6408 70.5049 34.8214 70.0188 36.2797 70.0188H57.1131C57.2519 70.0188 56.7658 70.5744 55.6547 71.6855C54.6131 72.7271 54.0922 73.1785 54.0922 73.0396V50.0188C54.0922 48.6299 54.5783 47.4494 55.5506 46.4771C56.5228 45.5049 57.7033 45.0188 59.0922 45.0188C60.4811 45.0188 61.6617 45.5049 62.6339 46.4771C63.6061 47.4494 64.0922 48.6299 64.0922 50.0188V73.0396C64.0922 73.1785 63.5367 72.7271 62.4256 71.6855C61.3839 70.5744 60.9325 70.0188 61.0714 70.0188H88.0506C89.4394 70.0188 90.62 70.5049 91.5922 71.4771C92.5644 72.4494 93.0506 73.6299 93.0506 75.0188C93.0506 76.4077 92.5644 77.5882 91.5922 78.5605C90.62 79.5327 89.4394 80.0188 88.0506 80.0188H61.0714C60.9325 80.0188 61.3839 79.498 62.4256 78.4563C63.5367 77.3452 64.0922 76.8591 64.0922 76.998V115.435C64.0922 118.422 64.8214 120.783 66.2797 122.519C67.7381 124.185 69.6825 125.019 72.1131 125.019C74.4047 125.019 76.3492 124.29 77.9464 122.831C79.5436 121.373 80.4464 119.463 80.6547 117.102L81.8006 106.373Z" fill="black"/>
</svg>
