<svg width="180" height="180" viewBox="0 0 180 180" fill="none" xmlns="http://www.w3.org/2000/svg">
<path d="M109.267 121.964C110.899 121.964 112.293 122.576 113.449 123.8C114.673 124.956 115.285 126.35 115.285 127.982C115.285 129.614 114.673 131.008 113.449 132.164C112.293 133.388 110.899 134 109.267 134H79.7885C78.1565 134 76.7285 133.388 75.5045 132.164C74.3485 131.008 73.7705 129.614 73.7705 127.982C73.7705 126.35 74.3485 124.956 75.5045 123.8C76.7285 122.576 78.1565 121.964 79.7885 121.964H92.4365C92.5725 121.964 91.9265 122.678 90.4985 124.106C89.0705 125.534 88.3565 126.18 88.3565 126.044V52.604C88.3565 52.4679 89.0705 53.1139 90.4985 54.542C91.9265 55.9699 92.5725 56.6839 92.4365 56.6839H79.7885C78.1565 56.6839 76.7285 56.1059 75.5045 54.95C74.3485 53.726 73.7705 52.2979 73.7705 50.6659C73.7705 49.0339 74.3485 47.6399 75.5045 46.4839C76.7285 45.2599 78.1565 44.6479 79.7885 44.6479H119.059C123.751 44.7159 128.001 45.8379 131.809 48.0139C135.685 50.1899 138.745 53.148 140.989 56.888C143.233 60.5599 144.355 64.6059 144.355 69.0259C144.355 73.7179 143.267 77.9339 141.091 81.674C138.983 85.4139 135.991 88.3719 132.115 90.5479C128.307 92.6559 123.955 93.7439 119.059 93.8119H96.3125C96.1765 93.8119 96.8225 93.0979 98.2505 91.6699C99.6785 90.2419 100.393 89.596 100.393 89.732V126.044C100.393 126.18 99.6785 125.534 98.2505 124.106C96.8225 122.678 96.1765 121.964 96.3125 121.964H109.267ZM100.393 85.8559C100.393 85.9919 99.6785 85.3459 98.2505 83.9179C96.8225 82.4899 96.1765 81.7759 96.3125 81.7759H119.059C123.139 81.6399 126.369 80.4499 128.749 78.2059C131.129 75.8939 132.319 72.834 132.319 69.0259C132.319 66.7819 131.741 64.7419 130.585 62.9059C129.497 61.0019 127.933 59.5059 125.893 58.4179C123.853 57.3299 121.541 56.7519 118.957 56.6839H96.3125C96.1765 56.6839 96.8225 55.9699 98.2505 54.542C99.6785 53.1139 100.393 52.4679 100.393 52.604V85.8559Z" fill="black"/>
<path d="M47.954 82.118C45.574 82.118 43.398 81.54 41.426 80.384C39.454 79.228 37.89 77.664 36.734 75.692C35.578 73.72 35 71.544 35 69.164C35 66.784 35.578 64.608 36.734 62.636C37.89 60.664 39.454 59.1 41.426 57.944C43.398 56.788 45.574 56.21 47.954 56.21C50.334 56.21 52.51 56.788 54.482 57.944C56.454 59.1 58.018 60.664 59.174 62.636C60.33 64.608 60.908 66.784 60.908 69.164C60.908 71.544 60.33 73.72 59.174 75.692C58.018 77.664 56.454 79.228 54.482 80.384C52.51 81.54 50.334 82.118 47.954 82.118ZM47.954 122.51C45.574 122.51 43.398 121.932 41.426 120.776C39.454 119.62 37.89 118.056 36.734 116.084C35.578 114.112 35 111.936 35 109.556C35 107.176 35.578 105 36.734 103.028C37.89 101.056 39.454 99.492 41.426 98.336C43.398 97.18 45.574 96.602 47.954 96.602C50.334 96.602 52.51 97.18 54.482 98.336C56.454 99.492 58.018 101.056 59.174 103.028C60.33 105 60.908 107.176 60.908 109.556C60.908 111.936 60.33 114.112 59.174 116.084C58.018 118.056 56.454 119.62 54.482 120.776C52.51 121.932 50.334 122.51 47.954 122.51Z" fill="black"/>
</svg>
